<svg xmlns="http://www.w3.org/2000/svg" xmlns:xlink="http://www.w3.org/1999/xlink" viewBox="0 0 202.52 80.86"><defs><style>.cls-1{isolation:isolate;}.cls-2{fill:#00a8be;}.cls-3{fill:url(#linear-gradient);}.cls-4{opacity:0.11;mix-blend-mode:screen;fill:url(#linear-gradient-2);}.cls-5{fill:#65c7ce;}.cls-6{fill:#fff;opacity:0.21;}.cls-7{opacity:0.31;fill:url(#linear-gradient-3);}.cls-8{fill:#223267;}</style><linearGradient id="linear-gradient" x1="845.51" y1="697.49" x2="893.42" y2="697.49" gradientTransform="matrix(0.73, -0.68, 0.68, 0.73, -1100.45, 133.98)" gradientUnits="userSpaceOnUse"><stop offset="0" stop-color="#96262a"/><stop offset="0.98" stop-color="#ee3d25"/></linearGradient><linearGradient id="linear-gradient-2" x1="866.92" y1="691.81" x2="906.73" y2="691.81" gradientTransform="matrix(0.73, -0.68, 0.68, 0.73, -1100.45, 133.98)" gradientUnits="userSpaceOnUse"><stop offset="0" stop-color="#daeff3"/><stop offset="0.96" stop-color="#22b2df"/></linearGradient><linearGradient id="linear-gradient-3" x1="876.41" y1="700.15" x2="890.68" y2="686.96" xlink:href="#linear-gradient-2"/></defs><title>iAcademy</title><g class="cls-1"><g id="Layer_2" data-name="Layer 2"><g id="Layer_1-2" data-name="Layer 1"><path class="cls-2" d="M34.28,35.51h4.37l8.89,30H42.8l-2.24-8.35H27.25L23,65.48H18.32ZM28.92,53.92H39.64L36.28,41.79l-.21-1-.13-.42,0-.37-.66,1.79Z"/><path class="cls-2" d="M67.29,46.86a13.63,13.63,0,0,0-4-.63,9.62,9.62,0,0,0-6.92,2.64,8.93,8.93,0,0,0-2.77,6.76,6.82,6.82,0,0,0,1.77,4.95,6.64,6.64,0,0,0,5,1.82,12.18,12.18,0,0,0,5.28-1.28l-.46,3.57a15.93,15.93,0,0,1-6,1.25,10.07,10.07,0,0,1-7.33-2.56,9.5,9.5,0,0,1-2.64-7.17,13.53,13.53,0,0,1,.58-4.07,12.61,12.61,0,0,1,1.06-2.41c.48-.89,1.16-2,2-3.25q2.44-3.65,10.43-3.65l2.24.12a16.13,16.13,0,0,1,2.29.5Z"/><path class="cls-2" d="M88.36,65.48H84.21l.2-1.79-1.16.84a8.86,8.86,0,0,1-4.91,1.37,8.12,8.12,0,0,1-6.21-2.62,9.4,9.4,0,0,1-2.43-6.65,13.86,13.86,0,0,1,3.61-9.88,12.29,12.29,0,0,1,9.36-3.84,21.07,21.07,0,0,1,3.49.25l2.45.37,2.33.54ZM86.5,46.86l-2-.59-2-.16a8.17,8.17,0,0,0-6.24,2.72,9.55,9.55,0,0,0-2.54,6.77,7.65,7.65,0,0,0,1.68,5.11,5.5,5.5,0,0,0,4.39,2,8.08,8.08,0,0,0,4.9-1.88Z"/><path class="cls-2" d="M112.61,35.51h4.1L113.1,65.23l-2.21.29c-.66,0-1.51,0-2.55.11s-1.63.1-1.77.1a26.94,26.94,0,0,1-5-.39,10.34,10.34,0,0,1-3.66-1.5,7.48,7.48,0,0,1-2.64-3.22,11.13,11.13,0,0,1-1-4.7A12.85,12.85,0,0,1,98,46.71a11.74,11.74,0,0,1,8.79-3.84,15.6,15.6,0,0,1,4.86.91Zm-1.47,11.72a13.38,13.38,0,0,0-2.1-.79,7.87,7.87,0,0,0-2-.25A7.6,7.6,0,0,0,101.19,49a9.61,9.61,0,0,0-2.48,6.61,6.11,6.11,0,0,0,2.19,4.92,8.85,8.85,0,0,0,5.93,1.85h1.38l1.16-.24Z"/><path class="cls-2" d="M123.24,54.76v.54A7.41,7.41,0,0,0,125,60.53a6,6,0,0,0,4.68,1.87,10.12,10.12,0,0,0,4.3-.83c1.21-.55,2.37-1.15,3.47-1.78L137,63a14.87,14.87,0,0,1-8.61,3,9.15,9.15,0,0,1-6.88-2.64A9.83,9.83,0,0,1,119,56.13a13.77,13.77,0,0,1,3.36-9.38,10.68,10.68,0,0,1,8.36-3.84,7.88,7.88,0,0,1,6.11,2.35A9.36,9.36,0,0,1,139,51.85a22.1,22.1,0,0,1-.25,2.91Zm.5-3.08h11.47l0-.75a4.94,4.94,0,0,0-1.35-3.51A4.49,4.49,0,0,0,130.47,46a6,6,0,0,0-4,1.5A9.92,9.92,0,0,0,123.74,51.68Z"/><path class="cls-2" d="M144.69,43.32h4l-.33,3a11.38,11.38,0,0,1,3.37-2.52,8.26,8.26,0,0,1,3.61-.85,5.94,5.94,0,0,1,5.91,3.91q3.53-3.91,7.61-3.91a6.53,6.53,0,0,1,4.76,1.72,6.27,6.27,0,0,1,1.76,4.68l-.08,1.41-1.79,14.76h-4.1l1.73-13.88,0-1a4,4,0,0,0-1.08-3,3.54,3.54,0,0,0-2.79-1.17q-2.91,0-5.82,3.08l-.12,2.29-1.7,13.63h-4.07L157.32,52l.09-1.72a3.67,3.67,0,0,0-1.08-2.68,3.63,3.63,0,0,0-2.66-1.09q-2.7,0-5.69,3.08l-2,15.92H141.9Z"/><path class="cls-2" d="M184.55,60.73l-6.27-17.41h4.5l4.05,11.61.12.32.1,1.67,0,.62.39-1.72a3.34,3.34,0,0,1,.4-.92l6.88-11.58h4.51L179.82,75.67l-4.36,0Z"/><path class="cls-2" d="M26.46,14.91a9.77,9.77,0,0,1-8.07,1.85c-5.13-1-8.6-5.55-7.75-10.12A8.09,8.09,0,0,1,16,.58a7.73,7.73,0,0,0-2.75,4.58c-.85,4.58,2.62,9.11,7.75,10.13A10.26,10.26,0,0,0,26.46,14.91Z"/><path class="cls-3" d="M24.91,31c.4,12.36-8.59,8.93-11.29,15.93-.83,2.18-.76,4.89-.5,8,.05.65.11,1.31.17,2,.59,6.62,1.28,14.88-3.92,23.94a185.41,185.41,0,0,1-7.4-27A96.56,96.56,0,0,1,.06,32.28C.71,17.56,12.38,17.09,19.49,22.11,22.57,24.28,24.8,27.47,24.91,31Z"/><path class="cls-4" d="M24.91,31c.4,12.36-8.59,8.93-11.29,15.93-.83,2.18-.76,4.89-.5,8,.05.65.11,1.31.17,2a22.87,22.87,0,0,1-8.15-1.38A96.49,96.49,0,0,1,3.22,34c.57-12.69,9.31-14.79,16.27-11.91C22.57,24.28,24.8,27.47,24.91,31Z"/><path class="cls-5" d="M26.46,14.91a10.26,10.26,0,0,1-5.45.38c-5.13-1-8.6-5.55-7.75-10.13A7.73,7.73,0,0,1,16,.58,10.26,10.26,0,0,1,21.46.2c5.13,1,8.6,5.55,7.75,10.12A7.68,7.68,0,0,1,26.46,14.91Z"/><path class="cls-6" d="M25.41,11.84a4.72,4.72,0,0,1-2.56-.19,4.34,4.34,0,0,1-3-5.25,3.6,3.6,0,0,1,1.58-1.95,4.83,4.83,0,0,1,2.56.2,4.33,4.33,0,0,1,3,5.24A3.57,3.57,0,0,1,25.41,11.84Z"/><path class="cls-7" d="M22,25.52c1.78,3.37,3.31,9.26-2.28,14.41A46,46,0,0,1,16,43a13.62,13.62,0,0,1-3.29,1.3c1.7-1.54,3.42-3.1,4.92-4.49,6.43-5.93,5.83-10.94,4.1-14.35Z"/><path class="cls-8" d="M199.43,21.9a3.15,3.15,0,1,0,3.09,3.2A3.15,3.15,0,0,0,199.43,21.9Zm-.1,6a2.86,2.86,0,1,1,2.9-2.81A2.86,2.86,0,0,1,199.33,27.9Z"/><path class="cls-8" d="M200,25.24h0a1,1,0,0,0,.72-.95,1,1,0,0,0-.28-.71,1.56,1.56,0,0,0-1.08-.32,4.45,4.45,0,0,0-.93.06L198.41,27h.48l0-1.61h.46c.44,0,.63.22.74.74a4.41,4.41,0,0,0,.23.9h.5a5,5,0,0,1-.27-1A1,1,0,0,0,200,25.24Zm-.62-.21h-.49l0-1.36a2.27,2.27,0,0,1,.48,0c.51,0,.85.23.85.71S199.93,25,199.41,25Z"/></g></g></g></svg>